<mxfile host="app.diagrams.net" modified="2024-05-07T08:58:30.666Z" agent="Mozilla/5.0 (Windows NT 10.0; Win64; x64) AppleWebKit/537.36 (KHTML, like Gecko) Chrome/124.0.0.0 Safari/537.36" version="24.2.5" etag="cUnHFsSCHolDZ8hVNerQ" type="github">
  <diagram name="Page-1" id="sbF3bscfrNNnjkHBmDtI">
    <mxGraphModel>
      <root>
        <mxCell id="0" />
        <mxCell id="1" parent="0" />
      </root>
    </mxGraphModel>
  </diagram>
</mxfile>
